<svg xmlns="http://www.w3.org/2000/svg" width="180" height="82" viewBox="0 0 180 82">
    <g fill="#FFF" fill-rule="evenodd">
        <path fill-rule="nonzero" d="M24.07 40.9l30.015-17.537c1.054-.61 2.363.148 2.363 1.388v32.28c0 1.221-1.309 1.998-2.363 1.388L24.07 40.9zm28.288-25.066c.89.703.8 2.09-.182 2.664l-29.56 17.278 7.29-34.5c.236-1.148 1.563-1.666 2.49-.944l19.962 15.502zM32.396 81.468a1.552 1.552 0 0 1-2.472-.943l-7.29-34.5 29.578 17.277c.964.574 1.055 1.961.164 2.664l-19.98 15.502zM16.38 40.9l7.854 37.164c.309 1.462-1.328 2.516-2.491 1.61L1.636 64.06C.6 63.265 0 62.007 0 60.694V21.088c0-1.314.6-2.572 1.636-3.367L21.743 2.108c1.163-.907 2.8.148 2.49 1.61L16.38 40.9z"/>
        <text font-family="Cera-Medium, Cera" font-size="27.648" font-weight="400" letter-spacing="-.576">
            <tspan x="65.28" y="59.44">Kybe</tspan> <tspan x="128.253" y="59.44">r</tspan>
        </text>
        <text font-family="Cera-Medium, Cera" font-size="27.648" font-weight="400" letter-spacing="-.576">
            <tspan x="141.12" y="59.44">KPI</tspan>
        </text>
    </g>
</svg>
